{"title":"The.Fault.in.Our.Stars.2014.BRRip.720p.x264.AAC-PRiSTiNE [P2PDL]","uid":10933705,"size":892596810,"categoryP":"video","categoryS":"hd___movies","magnet":"?xt=urn:btih:3a4c378218347b5fd18e3054b447ab66f62c1272&amp;dn=The.Fault.in.Our.Stars.2014.BRRip.720p.x264.AAC-PRiSTiNE+%5BP2PDL%5D&amp;tr=udp%3A%2F%2Ftracker.openbittorrent.com%3A80&amp;tr=udp%3A%2F%2Fopen.demonii.com%3A1337&amp;tr=udp%3A%2F%2Ftracker.coppersurfer.tk%3A6969&amp;tr=udp%3A%2F%2Fexodus.desync.com%3A6969","seeders":4,"leechers":2,"uploader":"ValidusVyto","files":-1,"time":1409418348,"description":" ___    ___       ___   _____    _   _  ___   \n(  _` |  _`  _ (  _`(_   _)_ ( ) ( )(  _` \n| |_) )| (_) )(_)| (_(_) | | (_)| `| || (_(_)\n| ,__/'| ,  / | |`__   | | | || , ` ||  _)_ \n| |    | |  | |( )_) | | | | || |` || (_( )\n(_)    (_) (_)(_)`____) (_) (_)(_) (_)(____/' \n\n\n\nThe.Fault.in.Our.Stars.2014.BRRip.720p.x264.AAC-PRiSTiNE\n\n\nGenre: Drama | Romance &lt;a href=&quot;\nhttp://www.imdb.com/title/tt2582846/&quot; rel=&quot;nofollow&quot; target=&quot;_NEW&quot;&gt;\nhttp://www.imdb.com/title/tt2582846/&lt;/a&gt;\n\n\nGeneral\nFormat                         : MPEG-4\nFile size                      : 843 MiB\nDuration                       : 2h 12mn\nOverall bit rate               : 887 Kbps\n\nVideo\nFormat                         : AVC\nDuration                       : 2h 12mn\nBit rate                       : 800 Kbps\nWidth                          : 1 280 pixels\nHeight                         : 688 pixels\nDisplay aspect ratio           : 1.85:1\nFrame rate                     : 23.976 fps\nBit depth                      : 8 bits\nStream size                    : 760 MiB (90%)\nWriting library                : x264 core 142 r2389 956c8d8\n\nAudio\nFormat                         : AAC\nBit rate                       : 80.3 Kbps\nChannel(s)                     : 2 channels\nChannel positions              : Front: L R\nSampling rate                  : 48.0 KHz\nStream size                    : 76.3 MiB (9%)\nLanguage                       : English\n\nSubtitle                       : Yes (English)\n &lt;a href=&quot;\nhttp://imgbox.com/rvWXeoBi&quot; rel=&quot;nofollow&quot; target=&quot;_NEW&quot;&gt;\nhttp://imgbox.com/rvWXeoBi&lt;/a&gt; &lt;a href=&quot;\nhttp://imgbox.com/Xvyrmdsm&quot; rel=&quot;nofollow&quot; target=&quot;_NEW&quot;&gt;\nhttp://imgbox.com/Xvyrmdsm&lt;/a&gt; &lt;a href=&quot;\nhttp://imgbox.com/Y91d5kpF&quot; rel=&quot;nofollow&quot; target=&quot;_NEW&quot;&gt;\nhttp://imgbox.com/Y91d5kpF&lt;/a&gt; &lt;a href=&quot;\nhttp://imgbox.com/MwFZl355&quot; rel=&quot;nofollow&quot; target=&quot;_NEW&quot;&gt;\nhttp://imgbox.com/MwFZl355&lt;/a&gt; &lt;a href=&quot;\nhttp://imgbox.com/ucgsuLfV&quot; rel=&quot;nofollow&quot; target=&quot;_NEW&quot;&gt;\nhttp://imgbox.com/ucgsuLfV&lt;/a&gt; &lt;a href=&quot;\nhttp://imgbox.com/muoGogrs&quot; rel=&quot;nofollow&quot; target=&quot;_NEW&quot;&gt;\nhttp://imgbox.com/muoGogrs&lt;/a&gt; &lt;a href=&quot;\nhttp://imgbox.com/AtCJ6Snd&quot; rel=&quot;nofollow&quot; target=&quot;_NEW&quot;&gt;\nhttp://imgbox.com/AtCJ6Snd&lt;/a&gt; &lt;a href=&quot;\nhttp://imgbox.com/6llF5WiT&quot; rel=&quot;nofollow&quot; target=&quot;_NEW&quot;&gt;\nhttp://imgbox.com/6llF5WiT&lt;/a&gt; &lt;a href=&quot;\nhttp://imgbox.com/xeyHEOVm&quot; rel=&quot;nofollow&quot; target=&quot;_NEW&quot;&gt;\nhttp://imgbox.com/xeyHEOVm&lt;/a&gt; &lt;a href=&quot;\nhttp://imgbox.com/yJ6E7PXF&quot; rel=&quot;nofollow&quot; target=&quot;_NEW&quot;&gt;\nhttp://imgbox.com/yJ6E7PXF&lt;/a&gt;\n\n----------------------------------------------------------------------------------------------------\n\n\nRecommend to you to use latest version of VLC player. Install K-Lite Codec Pack or shark007 codecs\nin case of any kind of problem in playback (For non-VLC Media Player users). Alternatively, install\nCore AVC codecs, the fastest decoder that there is coupled with Community Center Codec Pack and play\non Windows Media Player Classic. Check sample to be sure.\n\nEncoder Notes: Looking For Early Access To Anything You Can Provide DVDScr, R5, DVDR, BluRay, Direct\nAudio, Music Releases and Seedboxes. We require dedicated servers, so as to do more \nand fast releases of movies.","torrent":{"xt":"urn:btih:3a4c378218347b5fd18e3054b447ab66f62c1272","amp;dn":"The.Fault.in.Our.Stars.2014.BRRip.720p.x264.AAC-PRiSTiNE+%5BP2PDL%5D","amp;tr":["udp%3A%2F%2Ftracker.openbittorrent.com%3A80","udp%3A%2F%2Fopen.demonii.com%3A1337","udp%3A%2F%2Ftracker.coppersurfer.tk%3A6969","udp%3A%2F%2Fexodus.desync.com%3A6969"],"infoHash":"3a4c378218347b5fd18e3054b447ab66f62c1272","infoHashBuffer":{"type":"Buffer","data":[58,76,55,130,24,52,123,95,209,142,48,84,180,71,171,102,246,44,18,114]},"announce":[],"urlList":[]}}